<svg width="16" height="16" viewBox="0 0 16 16" fill="none" xmlns="http://www.w3.org/2000/svg">
<path d="M17.1632 15.8367L13.453 12.125C14.5654 10.6754 15.0848 8.85687 14.9057 7.03839C14.7267 5.21991 13.8626 3.53763 12.4888 2.3328C11.115 1.12798 9.33439 0.490822 7.5081 0.550592C5.68181 0.610363 3.94663 1.36258 2.65455 2.65466C1.36247 3.94673 0.610256 5.68191 0.550486 7.50821C0.490715 9.3345 1.12787 11.1151 2.3327 12.4889C3.53752 13.8627 5.21981 14.7268 7.03828 14.9059C8.85676 15.0849 10.6753 14.5655 12.1249 13.4531L15.8382 17.1672C15.9254 17.2544 16.0289 17.3236 16.1428 17.3708C16.2568 17.418 16.3789 17.4423 16.5022 17.4423C16.6256 17.4423 16.7477 17.418 16.8616 17.3708C16.9756 17.3236 17.0791 17.2544 17.1663 17.1672C17.2535 17.08 17.3227 16.9765 17.3699 16.8625C17.4171 16.7486 17.4414 16.6265 17.4414 16.5031C17.4414 16.3798 17.4171 16.2577 17.3699 16.1437C17.3227 16.0298 17.2535 15.9263 17.1663 15.8391L17.1632 15.8367ZM2.43739 7.75C2.43739 6.69929 2.74897 5.67217 3.33271 4.79853C3.91646 3.9249 4.74615 3.24398 5.71689 2.84189C6.68762 2.4398 7.75579 2.33459 8.78631 2.53958C9.81683 2.74456 10.7634 3.25053 11.5064 3.9935C12.2494 4.73646 12.7553 5.68306 12.9603 6.71358C13.1653 7.74411 13.0601 8.81227 12.658 9.78301C12.2559 10.7537 11.575 11.5834 10.7014 12.1672C9.82772 12.7509 8.80061 13.0625 7.74989 13.0625C6.34137 13.0611 4.99096 12.5009 3.99499 11.5049C2.99901 10.5089 2.43884 9.15852 2.43739 7.75Z" fill="#5C6970"/>
</svg>
